<?xml version="1.0" encoding="UTF-8"?>
<svg id="Background" xmlns="http://www.w3.org/2000/svg" viewBox="0 0 1064.81 400">
  <defs>
    <style>
      .cls-1 {
        fill: #fff;
      }

      .cls-2 {
        fill: #6818ad;
      }
    </style>
  </defs>
  <g>
    <path d="M469.94,184.33c3.65-7.3,8.62-12.92,14.91-16.85,6.29-3.93,13.31-5.9,21.06-5.9,6.18,0,11.82,1.29,16.93,3.88,5.11,2.59,9.12,6.07,12.05,10.45v-43.64h28.81v124.69h-28.81v-13.48c-2.7,4.49-6.54,8.09-11.54,10.78-5,2.7-10.81,4.04-17.44,4.04-7.75,0-14.77-1.99-21.06-5.98-6.29-3.99-11.26-9.66-14.91-17.02-3.65-7.36-5.48-15.86-5.48-25.53s1.82-18.14,5.48-25.44ZM528.91,192.93c-3.99-4.15-8.85-6.23-14.58-6.23s-10.59,2.05-14.57,6.15c-3.99,4.1-5.98,9.75-5.98,16.93s1.99,12.89,5.98,17.1c3.99,4.21,8.85,6.32,14.57,6.32s10.59-2.08,14.58-6.23c3.99-4.15,5.98-9.83,5.98-17.02s-2-12.86-5.98-17.02Z"/>
    <path d="M613.41,132.27v124.69h-28.81v-124.69h28.81Z"/>
    <path d="M634.56,184.33c3.99-7.3,9.55-12.92,16.68-16.85,7.13-3.93,15.3-5.9,24.52-5.9,11.79,0,21.65,3.09,29.57,9.27,7.92,6.18,13.11,14.89,15.59,26.12h-30.67c-2.59-7.19-7.58-10.78-15-10.78-5.28,0-9.49,2.05-12.64,6.15-3.15,4.1-4.72,9.97-4.72,17.61s1.57,13.51,4.72,17.61c3.14,4.1,7.36,6.15,12.64,6.15,7.41,0,12.41-3.59,15-10.78h30.67c-2.47,11.01-7.7,19.66-15.67,25.95-7.98,6.29-17.81,9.44-29.49,9.44-9.21,0-17.38-1.96-24.52-5.9-7.13-3.93-12.7-9.55-16.68-16.85-3.99-7.3-5.98-15.84-5.98-25.61s1.99-18.31,5.98-25.61Z"/>
    <path d="M824.37,206.49c4.15,5.34,6.23,11.43,6.23,18.28,0,9.89-3.45,17.72-10.36,23.5-6.91,5.79-16.54,8.68-28.9,8.68h-55.1v-118.29h53.25c12.02,0,21.43,2.75,28.22,8.26,6.8,5.51,10.19,12.97,10.19,22.41,0,6.97-1.83,12.75-5.48,17.35-3.65,4.61-8.51,7.81-14.57,9.6,6.85,1.46,12.36,4.86,16.51,10.19ZM765.06,186.52h18.87c4.72,0,8.34-1.04,10.87-3.12,2.53-2.08,3.79-5.14,3.79-9.18s-1.26-7.13-3.79-9.27c-2.53-2.13-6.15-3.2-10.87-3.2h-18.87v24.77ZM797.49,230.42c2.64-2.19,3.96-5.36,3.96-9.52s-1.38-7.41-4.13-9.77c-2.75-2.36-6.55-3.54-11.37-3.54h-20.89v26.12h21.23c4.83,0,8.56-1.09,11.21-3.29Z"/>
    <path d="M932.38,138.67v23.08h-31.34v95.2h-28.81v-95.2h-31.34v-23.08h91.49Z"/>
    <path d="M949.56,166.39c5.05-9.15,12.1-16.29,21.15-21.4,9.04-5.11,19.29-7.67,30.75-7.67,14.04,0,26.06,3.71,36.06,11.12,10,7.41,16.68,17.52,20.05,30.33h-31.68c-2.36-4.94-5.7-8.7-10.03-11.29-4.33-2.58-9.24-3.88-14.74-3.88-8.88,0-16.07,3.09-21.57,9.27-5.51,6.18-8.26,14.44-8.26,24.77s2.75,18.59,8.26,24.77c5.5,6.18,12.69,9.27,21.57,9.27,5.5,0,10.42-1.29,14.74-3.88,4.32-2.58,7.67-6.35,10.03-11.29h31.68c-3.37,12.81-10.05,22.89-20.05,30.25-10,7.36-22.02,11.04-36.06,11.04-11.46,0-21.71-2.55-30.75-7.67-9.04-5.11-16.09-12.22-21.15-21.31-5.05-9.1-7.58-19.49-7.58-31.17s2.53-22.1,7.58-31.26Z"/>
  </g>
  <g>
    <circle class="cls-2" cx="200" cy="200" r="200"/>
    <path id="symbol" class="cls-1" d="M256.59,166.13c-1.71-18.5-17.88-24.78-38.32-26.64l.12-25.65-15.84-.07-.12,24.98c-4.16-.02-8.42.04-12.65.11l.12-25.14-15.83-.07-.13,25.65c-3.43.05-6.8.1-10.08.09v-.08s-21.85-.11-21.85-.11l-.08,16.68s11.7-.17,11.5.05c6.42.03,8.49,3.71,9.08,6.88l-.34,70.27c-.29,1.99-1.49,5.16-5.98,5.14.2.18-11.51-.06-11.51-.06l-3.24,18.63,20.61.1c3.84.02,7.61.1,11.32.14l-.12,25.94,15.82.08.12-25.67c4.34.11,8.55.16,12.65.18l-.13,25.55,15.84.07.13-25.9c26.64-1.38,45.31-7.91,47.74-32.55,1.96-19.84-7.47-28.74-22.57-32.39,9.21-4.57,14.99-12.66,13.71-26.2h0ZM234.16,221.5c-.08,19.39-33.75,17.03-44.49,16.99l.17-34.38c10.74.05,44.42-2.83,44.32,17.39ZM227.03,172.97c-.09,17.64-28.17,15.45-37.11,15.41l.15-31.18c8.94.04,37.05-2.63,36.96,15.77Z"/>
    <path class="cls-1" d="M341.8,280.04c3.31-5.75,5.05-12.28,5.04-18.87l.11-126.29c-6.02.1-24.14,10.97-24.18,27.73l.07,98.61c0,2.4-.63,4.78-1.84,6.87-1.21,2.09-2.94,3.84-5.02,5.04l-85.29,49.48c-14.46,8.45-14.77,29.58-11.83,34.83l109.14-63.54c5.71-3.3,10.48-8.09,13.79-13.84"/>
    <path class="cls-1" d="M58.2,280.04c-3.31-5.75-5.05-12.28-5.04-18.87l-.11-126.29c6.02.1,24.14,10.97,24.18,27.73l-.07,98.61c0,2.4.63,4.78,1.84,6.87,1.21,2.09,2.94,3.84,5.02,5.04l85.29,49.48c14.46,8.45,14.77,29.58,11.83,34.83l-109.14-63.54c-5.71-3.3-10.48-8.09-13.79-13.84"/>
    <path class="cls-1" d="M200.01,37.23c6.63,0,13.16,1.75,18.87,5.05l109.52,62.89c-3.08,5.17-21.55,15.45-36.09,7.13l-85.43-49.24c-2.08-1.2-4.46-1.84-6.87-1.84-2.42,0-4.79.64-6.87,1.84l-85.43,49.25c-14.54,8.32-33.01-1.95-36.09-7.12l109.51-62.91c5.71-3.3,12.24-5.05,18.87-5.05"/>
  </g>
</svg>